HIERARCHY
ROOT Hips
{
	OFFSET	0.00	0.00	0.00
	CHANNELS 6 Xposition Yposition Zposition Zrotation Xrotation Yrotation
	JOINT LeftUpLeg
	{
		OFFSET	 0.126116	-0.014019	-0.065224
		CHANNELS 3 Zrotation Xrotation Yrotation
		JOINT LeftLeg
		{
			OFFSET	 0.000000	 0.000000	 0.569914
			CHANNELS 3 Zrotation Xrotation Yrotation
			JOINT LeftFoot
			{
				OFFSET	 0.000000	 0.000000	 0.544423
				CHANNELS 3 Zrotation Xrotation Yrotation
				JOINT LeftToeBase
				{
					OFFSET	 0.000000	 0.000000	 0.207117
					CHANNELS 3 Zrotation Xrotation Yrotation
					End Site
					{
						OFFSET	 0.000000	 0.000000	 0.207117
					}
				}
			}
		}
	}
	JOINT RightUpLeg
	{
		OFFSET	-0.124023	-0.008373	-0.065224
		CHANNELS 3 Zrotation Xrotation Yrotation
		JOINT RightLeg
		{
			OFFSET	 0.000000	 0.000000	 0.570047
			CHANNELS 3 Zrotation Xrotation Yrotation
			JOINT RightFoot
			{
				OFFSET	 0.000000	 0.000000	 0.544354
				CHANNELS 3 Zrotation Xrotation Yrotation
				JOINT RightToeBase
				{
					OFFSET	 0.000000	 0.000000	 0.207540
					CHANNELS 3 Zrotation Xrotation Yrotation
					End Site
					{
						OFFSET	 0.000000	 0.000000	 0.207540
					}
				}
			}
		}
	}
	JOINT Spine
	{
		OFFSET	 0.000184	-0.007763	 0.117403
		CHANNELS 3 Zrotation Xrotation Yrotation
		JOINT Spine1
		{
			OFFSET	 0.000000	 0.000000	 0.137269
			CHANNELS 3 Zrotation Xrotation Yrotation
			JOINT Spine2
			{
				OFFSET	 0.000000	 0.000000	 0.156879
				CHANNELS 3 Zrotation Xrotation Yrotation
				JOINT LeftShoulder
				{
					OFFSET	 0.080501	-0.002496	 0.160144
					CHANNELS 3 Zrotation Xrotation Yrotation
					JOINT LeftArm
					{
						OFFSET	 0.000000	 0.000000	 0.164363
						CHANNELS 3 Zrotation Xrotation Yrotation
						JOINT LeftForeArm
						{
							OFFSET	 0.000000	 0.000000	 0.364576
							CHANNELS 3 Zrotation Xrotation Yrotation
							JOINT LeftHand
							{
								OFFSET	 0.000000	 0.000000	 0.360812
								CHANNELS 3 Zrotation Xrotation Yrotation
								JOINT LeftHandIndex1
								{
									OFFSET	 0.000000	 0.000000	 0.086006
									CHANNELS 3 Zrotation Xrotation Yrotation
									JOINT LeftHandIndex2
									{
										OFFSET	 0.000000	 0.000000	 0.047236
										CHANNELS 3 Zrotation Xrotation Yrotation
										JOINT LeftHandIndex3
										{
											OFFSET	-0.004284	-0.000551	 0.038166
											CHANNELS 3 Zrotation Xrotation Yrotation
											End Site
											{
												OFFSET	-0.004284	-0.000551	 0.038166
											}
										}
									}
								}
							}
						}
					}
				}
				JOINT Neck
				{
					OFFSET	 0.000000	 0.000000	 0.176489
					CHANNELS 3 Zrotation Xrotation Yrotation
					JOINT Head
					{
						OFFSET	 0.000000	-0.001747	 0.077940
						CHANNELS 3 Zrotation Xrotation Yrotation
						End Site
						{
							OFFSET	 0.000000	-0.001747	 0.077940
						}
					}
				}
				JOINT RightShoulder
				{
					OFFSET	-0.080363	 0.000306	 0.159706
					CHANNELS 3 Zrotation Xrotation Yrotation
					JOINT RightArm
					{
						OFFSET	 0.000000	 0.000000	 0.164196
						CHANNELS 3 Zrotation Xrotation Yrotation
						JOINT RightForeArm
						{
							OFFSET	 0.000000	 0.000000	 0.365611
							CHANNELS 3 Zrotation Xrotation Yrotation
							JOINT RightHand
							{
								OFFSET	 0.000000	 0.000000	 0.360648
								CHANNELS 3 Zrotation Xrotation Yrotation
								JOINT RightHandIndex1
								{
									OFFSET	 0.000000	 0.000000	 0.069977
									CHANNELS 3 Zrotation Xrotation Yrotation
									JOINT RightHandIndex2
									{
										OFFSET	 0.000000	 0.000000	 0.052305
										CHANNELS 3 Zrotation Xrotation Yrotation
										JOINT RightHandIndex3
										{
											OFFSET	 0.009002	-0.000782	 0.042196
											CHANNELS 3 Zrotation Xrotation Yrotation
											End Site
											{
												OFFSET	 0.009002	-0.000782	 0.042196
											}
										}
									}
								}
							}
						}
					}
				}
			}
		}
	}
}
MOTION
Frames:    6
Frame Time: 0.03333334
-0.606595	 0.795653	 0.318883	 81.931240	 3.899281	-0.862123	 10.043350	 16.795890	-176.372900	-6.190288	-11.623340	 1.544293	-23.587220	 89.299740	 27.087740	-2.301375	 39.706010	-0.267775	 3.750049	-45.829570	 179.149400	-0.711407	-45.531720	 3.255007	-177.388500	 83.220110	-178.681800	 2.407013	 19.399910	-0.184988	 5.589616	 3.064948	 2.557664	 10.112690	-4.510357	 1.956093	 12.746240	-8.540315	 1.106323	-91.776180	 78.527400	-180.000000	 45.403470	 63.942020	-60.598290	-7.142422	-5.171178	-29.298800	 4.770950	-10.659210	-5.458171	-3.812334	 37.924440	-2.927599	-2.450526	 36.184240	 0.754587	-1.378229	 35.397820	-2.634230	-0.095240	 5.076235	-2.345236	 3.695952	-24.155920	-0.552039	 89.782070	 78.203930	-180.000000	-36.349000	 75.357780	 40.031410	 3.862992	-7.361087	 21.245320	-14.036330	-11.747120	 9.736806	 6.437017	 35.671460	-0.771858	 2.830251	 35.756010	-7.813440	-2.350882	 35.473990	 5.254307
-0.585255	 0.794663	 0.312596	 79.148730	 4.000450	-0.822396	 9.812481	 17.279980	-176.302300	-6.039238	-11.624090	 1.538752	-18.063360	 89.211430	 21.533190	-2.294711	 40.293040	-0.283511	 4.170849	-45.862510	 179.637200	-0.765469	-43.292760	 3.217440	-177.172300	 83.611810	-178.641400	 2.403213	 22.397530	-0.125075	 5.504578	 3.056768	 2.600986	 10.012760	-4.394478	 1.908982	 12.617290	-8.402150	 1.059376	-91.776180	 78.527400	 180.000000	 41.592000	 62.072510	-56.812670	-6.698131	-4.580024	-27.697240	 3.963780	-10.665640	-5.459468	-3.812334	 37.924440	-2.927599	-2.450526	 36.184240	 0.754587	-1.378229	 35.397820	-2.634230	-0.167387	 4.792397	-2.355762	 3.643785	-23.431750	-0.571144	 89.782090	 78.203830	-180.000000	-31.140010	 72.945850	 35.126180	 3.932709	-6.559898	 20.146210	-12.791700	-11.754660	 9.735590	 6.437017	 35.671460	-0.771858	 2.830251	 35.756010	-7.813440	-2.350882	 35.473990	 5.254307
-0.563177	 0.791089	 0.308873	 79.719300	 4.095578	-1.052064	 9.454302	 18.174230	-176.291600	-5.750538	-11.624760	 1.534167	-10.571620	 89.015430	 14.014780	-2.277229	 41.729270	-0.323001	 4.483962	-45.712930	-179.770500	-0.236015	-42.373740	 3.616672	-176.370000	 84.454010	-178.908900	 2.390597	 26.936050	-0.031129	 5.343215	 2.889969	 2.608974	 9.873693	-4.564779	 1.847560	 12.527460	-8.509419	 1.011134	-91.776180	 78.527400	 180.000000	 42.464720	 62.247810	-57.768760	-6.444985	-4.571796	-26.698050	 4.195529	-10.684280	-5.464884	-3.812334	 37.924440	-2.927599	-2.450526	 36.184240	 0.754587	-1.378229	 35.397820	-2.634230	-0.266219	 5.014575	-2.305187	 3.575068	-23.804830	-0.574905	 89.782090	 78.203890	-180.000000	-30.410900	 73.170390	 33.937050	 3.895369	-6.473285	 19.701060	-12.889580	-11.765250	 9.741300	 6.437017	 35.671460	-0.771858	 2.830251	 35.756010	-7.813440	-2.350882	 35.473990	 5.254307
-0.546660	 0.788088	 0.308969	 80.061820	 4.165167	-1.174221	 9.233213	 18.842220	-176.366200	-5.519671	-11.624530	 1.535889	-6.045255	 88.793580	 9.497377	-2.264259	 42.712610	-0.350902	 4.701201	-45.565550	-179.413800	 0.019681	-42.104170	 3.852669	-175.930800	 85.099670	-179.075600	 2.381613	 29.052720	 0.014428	 5.215515	 2.762096	 2.576287	 9.781340	-4.684466	 1.803729	 12.477900	-8.576165	 0.980017	-91.776180	 78.527400	-180.000000	 43.054710	 62.484400	-58.342140	-6.339969	-4.553481	-25.932600	 4.355511	-10.701780	-5.471182	-3.812334	 37.924440	-2.927599	-2.450526	 36.184240	 0.754587	-1.378229	 35.397820	-2.634230	-0.335497	 5.139376	-2.301048	 3.525532	-23.965080	-0.552940	 89.782120	 78.203870	 180.000000	-29.995440	 73.352980	 33.275360	 3.901519	-6.417940	 19.413020	-12.954280	-11.776610	 9.747403	 6.437017	 35.671460	-0.771858	 2.830251	 35.756010	-7.813440	-2.350882	 35.473990	 5.254307
-0.524823	 0.783836	 0.308878	 80.447940	 4.264197	-1.289276	 8.988213	 19.712540	-176.537600	-5.200642	-11.623560	 1.543472	-1.477292	 88.356460	 4.973834	-2.244791	 44.077870	-0.390912	 4.953493	-45.271920	-179.040900	 0.320379	-42.143870	 4.171995	-175.506500	 85.905330	-179.201400	 2.375887	 30.194260	 0.039553	 5.038148	 2.574455	 2.498230	 9.670631	-4.843348	 1.734665	 12.424320	-8.642063	 0.940446	-91.776180	 78.527400	 180.000000	 43.760550	 62.902340	-58.950980	-6.295615	-4.516951	-24.929440	 4.548812	-10.729270	-5.481927	-3.812334	 37.924440	-2.927599	-2.450526	 36.184240	 0.754587	-1.378229	 35.397820	-2.634230	-0.422749	 5.202697	-2.283874	 3.460476	-24.040610	-0.516764	 89.782120	 78.203870	 180.000000	-29.366680	 73.622240	 32.368430	 3.979034	-6.352830	 19.083190	-13.022220	-11.794060	 9.758027	 6.437017	 35.671460	-0.771858	 2.830251	 35.756010	-7.813440	-2.350882	 35.473990	 5.254307
-0.503245	 0.779430	 0.307126	 80.791090	 4.372558	-1.381720	 8.788204	 20.555690	-176.766700	-4.871187	-11.621890	 1.556040	 1.465323	 87.720920	 2.111036	-2.221045	 45.592330	-0.437203	 5.179436	-44.882930	-178.715400	 0.672293	-42.503250	 4.557729	-175.565000	 86.719020	-178.850100	 2.377501	 29.886020	 0.032726	 4.845619	 2.368593	 2.402574	 9.565371	-5.003175	 1.662975	 12.377610	-8.696824	 0.901097	-91.776180	 78.527380	-180.000000	 44.372520	 63.411570	-59.393720	-6.343717	-4.470413	-23.968590	 4.719927	-10.761290	-5.494566	-3.812334	 37.924440	-2.927599	-2.450526	 36.184240	 0.754587	-1.378229	 35.397820	-2.634230	-0.504823	 5.157724	-2.252589	 3.402159	-23.994300	-0.456823	 89.782090	 78.203830	-180.000000	-28.742810	 73.886410	 31.489220	 4.082784	-6.293956	 18.806230	-13.065210	-11.813240	 9.771548	 6.437017	 35.671460	-0.771858	 2.830251	 35.756010	-7.813440	-2.350882	 35.473990	 5.254307
